<?xml version="1.0" standalone="no"?>
<!DOCTYPE svg PUBLIC "-//W3C//DTD SVG 20010904//EN"
 "http://www.w3.org/TR/2001/REC-SVG-20010904/DTD/svg10.dtd">
<svg version="1.0" xmlns="http://www.w3.org/2000/svg"
 width="260.000000pt" height="260.000000pt" viewBox="0 0 260.000000 260.000000"
 preserveAspectRatio="xMidYMid meet">
<metadata>
Created by potrace 1.14, written by Peter Selinger 2001-2017
</metadata>
<g transform="translate(0.000000,260.000000) scale(0.100000,-0.100000)"
fill="#000000" stroke="none">
<path d="M550 2590 c-77 -21 -149 -86 -177 -160 -17 -42 -18 -114 -17 -1005
l0 -960 22 -46 c27 -58 97 -121 154 -139 24 -7 81 -14 127 -14 l85 -1 0 -115
c1 -63 5 -121 9 -127 18 -29 53 -12 129 64 l77 77 77 -77 c119 -120 141 -108
139 71 0 56 2 103 5 103 3 1 216 2 475 3 410 2 474 4 500 18 40 22 80 66 92
103 5 18 9 441 8 1060 -1 1085 1 1050 -44 1095 -9 10 -29 26 -46 36 -28 18
-62 19 -810 20 -429 0 -791 -2 -805 -6z"/>
</g>
</svg>
